PathFileType  4	(X/Y/Z) C:\Users\antoi\Documents\MyRepositories\mobilecap\ResultsAnalysis
DataRate	CameraRate	NumFrames	NumMarkers	Units	OrigDataRate	OrigDataStartFrame	OrigNumFrames
100.0	100.0	4	51	mm	100.0	19	147
Frame#	Time	r_knee			r_shank_antsup			r_ankle			r_calc			r_5meta			r_toe			L_knee			L_shank_antsup			L_ankle			L_calc			L_5meta			L_toe			r_sh2			r_sh3			r_sh4			L_sh2			L_sh3			r_thigh1			r_thigh2			r_thigh3			r_thigh4			r_thigh5			L_thigh1			L_thigh2			L_thigh3			L_thigh4			r.ASIS			r.PSIS			L.ASIS			L.PSIS			C7			R_Shoulder			L_Shoulder			R_Sternum			L_Sternum			R_humerus			R_elbow_med			R_elbow_lat			R_forearm			R_wrist_radius			R_wrist_ulna			L_humerus			L_elbow_med			L_elbow_lat			L_forearm			L_wrist_radius			L_wrist_ulna			R_HJC			L_HJC			R_HJC_reg			L_HJC_reg			
		X1	Y1	Z1	X2	Y2	Z2	X3	Y3	Z3	X4	Y4	Z4	X5	Y5	Z5	X6	Y6	Z6	X7	Y7	Z7	X8	Y8	Z8	X9	Y9	Z9	X10	Y10	Z10	X11	Y11	Z11	X12	Y12	Z12	X13	Y13	Z13	X14	Y14	Z14	X15	Y15	Z15	X16	Y16	Z16	X17	Y17	Z17	X18	Y18	Z18	X19	Y19	Z19	X20	Y20	Z20	X21	Y21	Z21	X22	Y22	Z22	X23	Y23	Z23	X24	Y24	Z24	X25	Y25	Z25	X26	Y26	Z26	X27	Y27	Z27	X28	Y28	Z28	X29	Y29	Z29	X30	Y30	Z30	X31	Y31	Z31	X32	Y32	Z32	X33	Y33	Z33	X34	Y34	Z34	X35	Y35	Z35	X36	Y36	Z36	X37	Y37	Z37	X38	Y38	Z38	X39	Y39	Z39	X40	Y40	Z40	X41	Y41	Z41	X42	Y42	Z42	X43	Y43	Z43	X44	Y44	Z44	X45	Y45	Z45	X46	Y46	Z46	X47	Y47	Z47	X48	Y48	Z48	X49	Y49	Z49	X50	Y50	Z50	X51	Y51	Z51	

19	0.18000000	124.37023	463.39588	-89.97238	132.76886	389.18687	-69.69288	90.92186	91.56907	-124.28255	21.19398	59.88961	-166.46062	186.56072	43.10366	-93.72880	235.58246	65.29326	-148.16847	-3.07347	432.19902	-384.06586	-32.43254	364.76384	-385.01064	-317.28974	241.67111	-361.35358	-370.30139	301.36066	-322.40463	-340.99170	134.13346	-372.02997	-303.30614	101.84526	-315.37848	126.60604	276.99196	-72.68579	58.05360	392.57360	-79.58851	44.00990	278.72203	-88.54772	-71.61367	441.89945	-408.53392	-173.96514	375.77863	-408.05128	118.91428	781.98808	-88.78640	151.99193	672.35635	-86.79062	113.22261	640.11595	-39.86928	28.24291	757.67447	-19.07206	53.84025	644.43996	-33.76221	59.57939	717.30433	-382.95821	69.26045	577.26037	-389.56551	-54.10647	711.53831	-391.95320	-37.99038	569.43214	-390.06747	91.22896	908.11478	-98.09265	-100.56459	920.32130	-156.61621	69.77744	884.21609	-354.30273	-110.42043	908.26972	-262.43811	-27.75644	1381.23063	-202.87558	30.46113	1310.36465	-55.11081	30.16743	1332.47303	-370.99635	82.54880	1288.88222	-190.56220	84.43085	1292.28093	-234.78659	81.63957	1078.73177	18.35560	49.44778	965.65935	-24.81428	70.36045	991.54648	40.53876	147.98372	896.51696	55.23736	196.45668	786.61636	60.22656	155.69141	771.07924	74.17610	64.65855	1201.50713	-417.60078	-14.98629	994.39798	-394.96054	8.21275	1003.64888	-452.18910	56.51201	905.54223	-467.02972	63.51664	778.92124	-462.80720	31.17295	773.38184	-480.47500	22.46998	830.92805	-113.53878	8.26457	815.34531	-312.72513	25.76753	825.38262	-119.53379	10.06441	806.17983	-288.13877	
20	0.19000000	127.35519	463.46641	-89.55186	134.61287	389.25766	-69.29940	91.16155	91.75187	-124.21079	21.37736	59.99520	-166.45275	186.66196	43.12062	-93.62233	235.62162	65.13788	-148.07289	20.46360	435.08980	-382.45063	-8.07289	367.09852	-382.86080	-292.08793	242.02057	-359.30320	-346.94574	300.99670	-321.31503	-313.07860	133.95708	-369.01399	-274.81307	103.24588	-311.80438	127.50650	277.08615	-72.29369	59.94194	393.27570	-79.68590	45.08113	279.54363	-88.80308	-47.54690	443.86228	-407.38997	-149.48619	377.07107	-406.89764	128.09102	782.65089	-88.47280	159.23411	672.27491	-86.69900	120.02288	640.74133	-39.74760	37.06358	759.67122	-18.54939	60.85388	646.00356	-33.35771	74.62947	721.86256	-381.24371	88.44171	582.01408	-387.52112	-38.47689	713.06433	-391.29830	-18.33830	571.29162	-389.17001	102.53423	910.43371	-97.37358	-89.89229	923.15149	-155.46959	80.67194	887.86108	-353.18838	-99.69412	911.27360	-261.39822	-17.57078	1383.88388	-199.87003	41.73747	1312.10296	-52.98101	38.69686	1336.53490	-368.94691	93.00350	1291.81333	-189.13258	94.43833	1295.51372	-233.37143	94.03105	1079.86306	17.94234	62.20890	967.20200	-26.33262	83.62168	992.36587	39.07906	162.40253	897.89925	51.54737	212.09016	788.50517	54.44910	171.72252	772.38214	68.65426	72.71795	1205.68904	-416.73025	-6.83463	998.51429	-394.77328	16.31858	1007.88932	-451.90089	64.76991	909.94129	-466.97710	72.22477	783.39024	-463.09516	39.86147	777.78602	-480.77661	33.47668	833.41414	-112.90139	19.09139	818.72619	-312.14331	36.58963	828.41147	-118.93588	21.01143	809.53290	-287.26944	
21	0.20000000	130.10653	463.52095	-89.10530	136.34612	389.33559	-68.87928	91.43129	91.98485	-124.11340	21.60008	60.09507	-166.44549	187.01810	43.34395	-93.51209	235.68033	64.97518	-147.95852	43.62693	438.26255	-380.79222	16.14034	369.68078	-380.71139	-266.47764	241.41571	-357.19741	-323.12614	299.42868	-319.96875	-284.57338	132.84123	-366.01772	-245.64096	103.69070	-308.37909	128.38368	277.18014	-71.89875	61.74381	393.93948	-79.75067	46.12035	280.31519	-89.01642	-24.05276	445.87052	-406.11232	-125.24815	377.87540	-405.54334	137.20890	783.09172	-87.88120	166.27473	671.99217	-86.27401	126.44153	641.20283	-39.47887	45.58311	761.55632	-18.07534	67.54445	647.44795	-33.00927	89.77372	726.42881	-379.57593	107.44583	586.98769	-385.53614	-22.77887	714.77375	-390.77459	1.16067	573.40885	-388.35072	113.46925	912.57972	-96.43881	-79.35537	925.82277	-154.55950	91.55424	891.50571	-351.91896	-89.00094	914.19918	-260.65890	-7.42378	1386.41364	-196.94308	53.04314	1313.78212	-50.98414	47.23343	1340.36631	-366.87201	103.41312	1294.57167	-187.76394	104.37797	1298.54388	-231.98874	106.18643	1080.99321	17.54110	74.51334	968.77463	-27.72626	96.55557	993.21056	37.69371	176.54667	899.37658	47.80734	227.53514	790.56029	48.48906	187.67109	773.84555	62.96762	80.48727	1209.70801	-416.02026	0.97359	1002.49168	-394.67283	23.90167	1011.99056	-451.75497	72.74817	914.23800	-467.04578	81.09008	787.81205	-463.32143	48.65131	781.98705	-480.97964	44.15103	835.73067	-112.29492	29.95754	822.06988	-311.61920	47.14409	831.26428	-118.25790	31.85770	812.84290	-286.36678	
22	0.21000000	132.67871	463.56085	-88.61230	138.01786	389.41729	-68.43395	91.74649	92.27791	-123.99219	21.84948	60.19871	-166.44353	187.57547	43.72455	-93.40666	235.77491	64.80671	-147.82771	66.38178	441.62667	-379.07554	40.14886	372.45350	-378.57365	-240.51672	239.93564	-355.03583	-298.97705	296.63626	-318.35180	-255.37497	130.89569	-363.12057	-215.67283	103.33364	-305.17443	129.27030	277.27886	-71.50448	63.51527	394.56792	-79.78727	47.15427	281.04646	-89.18348	-1.13031	447.87517	-404.69110	-101.29136	378.22958	-403.96871	146.25435	783.29365	-87.01408	173.15437	671.52062	-85.48897	132.52755	641.50335	-39.01866	53.84381	763.32357	-17.64639	73.91523	648.78701	-32.67866	104.91750	730.91729	-378.02487	126.19601	592.08144	-383.64540	-7.11719	716.55847	-390.37651	20.43746	575.66860	-387.62109	123.92375	914.45655	-95.27732	-68.92204	928.28974	-153.86351	102.41119	895.07583	-350.51972	-78.33817	916.96829	-260.16977	2.68909	1388.77691	-194.10915	64.34515	1315.38564	-49.11810	55.79105	1343.95927	-364.77802	113.77239	1297.12378	-186.44060	114.26616	1301.34168	-230.62874	118.15167	1082.09901	17.13918	86.39749	970.34204	-28.99848	109.19202	994.05122	36.37651	190.43115	900.92933	44.03894	242.80943	792.76394	42.37250	203.55195	775.47394	57.15035	88.00791	1213.56141	-415.45718	8.49920	1006.32487	-394.59727	30.96762	1015.96203	-451.70134	80.45127	918.43977	-467.25032	90.08113	792.18527	-463.51644	57.53034	786.00951	-481.10141	54.45879	837.79527	-111.70772	40.83452	825.30477	-311.14047	57.37744	833.91317	-117.45818	42.49830	816.02359	-285.39696	
